<svg id="Слой_1_копия_" data-name="Слой 1 (копия)" xmlns="http://www.w3.org/2000/svg" viewBox="0 0 512 512">
  <defs>
    <style>
      .cls-1 {
        fill: #aa7f27;
      }

      .cls-2 {
        fill: #ffbe3b;
      }
    </style>
  </defs>
  <g>
    <rect class="cls-1" x="29.43" y="29.43" width="453.13" height="453.13"/>
    <path class="cls-2" d="M472.57,39.43V472.57H39.43V39.43H472.57m20-20H19.43V492.57H492.57V19.43Z"/>
  </g>
  <g>
    <path class="cls-1" d="M256,502A246,246,0,0,1,82.05,82.05,246,246,0,0,1,430,430,244.4,244.4,0,0,1,256,502Z"/>
    <path class="cls-2" d="M256,20a236.06,236.06,0,0,1,91.86,453.46A236.07,236.07,0,0,1,164.14,38.54,234.56,234.56,0,0,1,256,20m0-20C114.62,0,0,114.62,0,256S114.62,512,256,512,512,397.38,512,256,397.38,0,256,0Z"/>
  </g>
  <g>
    <rect class="cls-2" x="158.02" y="112.14" width="44.86" height="287.72" rx="14.55"/>
    <rect class="cls-2" x="83.16" y="166.04" width="44.86" height="179.91" rx="14.55"/>
    <rect class="cls-2" x="307.73" y="112.14" width="44.86" height="287.72" rx="14.55"/>
    <rect class="cls-2" x="382.59" y="166.04" width="44.86" height="179.91" rx="14.55"/>
    <rect class="cls-2" x="232.88" y="40.57" width="44.86" height="430.87" rx="14.55"/>
  </g>
</svg>
